<mxfile modified="2022-02-10T20:25:46.879Z" host="app.diagrams.net" agent="5.0 (X11; Linux x86_64) AppleWebKit/537.36 (KHTML, like Gecko) Chrome/98.0.4758.80 Safari/537.36" etag="so3gaZSicX2hg1cbj33L" version="16.5.6" type="github">
  <diagram id="Ht1M8jgEwFfnCIfOTk4-" name="Page-1">
    <mxGraphModel dx="2947" dy="2598" grid="1" gridSize="10" guides="1" tooltips="1" connect="1" arrows="1" fold="1" page="1" pageScale="1" pageWidth="1169" pageHeight="827" math="0" shadow="0">
      <root>
        <mxCell id="0" />
        <mxCell id="1" parent="0" />
        <mxCell id="uI_ZGw8OhmgZRURIhKtp-2" value="Region" style="sketch=0;outlineConnect=0;gradientColor=none;html=1;whiteSpace=wrap;fontSize=12;fontStyle=0;shape=mxgraph.aws4.group;grIcon=mxgraph.aws4.group_region;strokeColor=#B6BABF;fillColor=none;verticalAlign=top;align=left;spacingLeft=30;fontColor=#B6BABF;dashed=1;" vertex="1" parent="1">
          <mxGeometry x="-840" y="-1120" width="840" height="960" as="geometry" />
        </mxCell>
        <mxCell id="uI_ZGw8OhmgZRURIhKtp-1" value="VPC" style="sketch=0;outlineConnect=0;gradientColor=none;html=1;whiteSpace=wrap;fontSize=12;fontStyle=0;shape=mxgraph.aws4.group;grIcon=mxgraph.aws4.group_vpc;strokeColor=#879196;fillColor=none;verticalAlign=top;align=left;spacingLeft=30;fontColor=#879196;dashed=0;" vertex="1" parent="1">
          <mxGeometry x="-800" y="-800" width="760" height="600" as="geometry" />
        </mxCell>
        <mxCell id="uI_ZGw8OhmgZRURIhKtp-3" value="" style="rounded=1;arcSize=10;dashed=1;strokeColor=#F59D56;fillColor=none;gradientColor=none;dashPattern=8 4;strokeWidth=2;" vertex="1" parent="1">
          <mxGeometry x="-680" y="-759" width="560" height="239" as="geometry" />
        </mxCell>
        <mxCell id="uI_ZGw8OhmgZRURIhKtp-39" style="edgeStyle=orthogonalEdgeStyle;rounded=0;orthogonalLoop=1;jettySize=auto;html=1;" edge="1" parent="1" source="uI_ZGw8OhmgZRURIhKtp-9" target="uI_ZGw8OhmgZRURIhKtp-37">
          <mxGeometry relative="1" as="geometry" />
        </mxCell>
        <mxCell id="uI_ZGw8OhmgZRURIhKtp-9" value="" style="rounded=1;whiteSpace=wrap;html=1;fillColor=none;" vertex="1" parent="1">
          <mxGeometry x="-640" y="-720" width="480" height="160" as="geometry" />
        </mxCell>
        <mxCell id="uI_ZGw8OhmgZRURIhKtp-4" value="" style="rounded=1;arcSize=10;dashed=1;strokeColor=#F59D56;fillColor=none;gradientColor=none;dashPattern=8 4;strokeWidth=2;" vertex="1" parent="1">
          <mxGeometry x="-680" y="-480" width="560" height="240" as="geometry" />
        </mxCell>
        <mxCell id="uI_ZGw8OhmgZRURIhKtp-5" value="AWS Fargate" style="sketch=0;outlineConnect=0;fontColor=#232F3E;gradientColor=none;strokeColor=#ffffff;fillColor=#232F3E;dashed=0;verticalLabelPosition=middle;verticalAlign=bottom;align=center;html=1;whiteSpace=wrap;fontSize=10;fontStyle=1;spacing=3;shape=mxgraph.aws4.productIcon;prIcon=mxgraph.aws4.fargate;" vertex="1" parent="1">
          <mxGeometry x="-220" y="-720" width="60" height="75" as="geometry" />
        </mxCell>
        <mxCell id="uI_ZGw8OhmgZRURIhKtp-6" value="AZ1" style="text;html=1;strokeColor=none;fillColor=none;align=center;verticalAlign=middle;whiteSpace=wrap;rounded=0;" vertex="1" parent="1">
          <mxGeometry x="-680" y="-560" width="61" height="30" as="geometry" />
        </mxCell>
        <mxCell id="uI_ZGw8OhmgZRURIhKtp-7" value="AZ2" style="text;html=1;strokeColor=none;fillColor=none;align=center;verticalAlign=middle;whiteSpace=wrap;rounded=0;" vertex="1" parent="1">
          <mxGeometry x="-680" y="-280" width="61" height="30" as="geometry" />
        </mxCell>
        <mxCell id="uI_ZGw8OhmgZRURIhKtp-42" style="edgeStyle=orthogonalEdgeStyle;rounded=0;orthogonalLoop=1;jettySize=auto;html=1;" edge="1" parent="1" source="uI_ZGw8OhmgZRURIhKtp-11" target="uI_ZGw8OhmgZRURIhKtp-37">
          <mxGeometry relative="1" as="geometry" />
        </mxCell>
        <mxCell id="uI_ZGw8OhmgZRURIhKtp-11" value="" style="rounded=1;whiteSpace=wrap;html=1;fillColor=none;" vertex="1" parent="1">
          <mxGeometry x="-640" y="-440" width="480" height="160" as="geometry" />
        </mxCell>
        <mxCell id="uI_ZGw8OhmgZRURIhKtp-8" value="AWS Fargate" style="sketch=0;outlineConnect=0;fontColor=#232F3E;gradientColor=none;strokeColor=#ffffff;fillColor=#232F3E;dashed=0;verticalLabelPosition=middle;verticalAlign=bottom;align=center;html=1;whiteSpace=wrap;fontSize=10;fontStyle=1;spacing=3;shape=mxgraph.aws4.productIcon;prIcon=mxgraph.aws4.fargate;" vertex="1" parent="1">
          <mxGeometry x="-220" y="-440" width="60" height="75" as="geometry" />
        </mxCell>
        <mxCell id="uI_ZGw8OhmgZRURIhKtp-13" value="Task" style="sketch=0;aspect=fixed;pointerEvents=1;shadow=0;dashed=0;html=1;strokeColor=none;labelPosition=center;verticalLabelPosition=bottom;verticalAlign=top;align=center;shape=mxgraph.azure.startup_task;fillColor=#0078D7;" vertex="1" parent="1">
          <mxGeometry x="-433.2" y="-674.5899999999999" width="66.4" height="69.17" as="geometry" />
        </mxCell>
        <mxCell id="uI_ZGw8OhmgZRURIhKtp-15" value="Task" style="sketch=0;aspect=fixed;pointerEvents=1;shadow=0;dashed=0;html=1;strokeColor=none;labelPosition=center;verticalLabelPosition=bottom;verticalAlign=top;align=center;shape=mxgraph.azure.startup_task;fillColor=#0078D7;" vertex="1" parent="1">
          <mxGeometry x="-433.2" y="-394.5899999999999" width="66.4" height="69.17" as="geometry" />
        </mxCell>
        <mxCell id="uI_ZGw8OhmgZRURIhKtp-40" style="edgeStyle=orthogonalEdgeStyle;rounded=0;orthogonalLoop=1;jettySize=auto;html=1;entryX=0.5;entryY=1;entryDx=0;entryDy=0;" edge="1" parent="1" source="uI_ZGw8OhmgZRURIhKtp-17" target="uI_ZGw8OhmgZRURIhKtp-9">
          <mxGeometry relative="1" as="geometry" />
        </mxCell>
        <mxCell id="uI_ZGw8OhmgZRURIhKtp-41" style="edgeStyle=orthogonalEdgeStyle;rounded=0;orthogonalLoop=1;jettySize=auto;html=1;entryX=0.5;entryY=0;entryDx=0;entryDy=0;" edge="1" parent="1" source="uI_ZGw8OhmgZRURIhKtp-17" target="uI_ZGw8OhmgZRURIhKtp-11">
          <mxGeometry relative="1" as="geometry" />
        </mxCell>
        <mxCell id="uI_ZGw8OhmgZRURIhKtp-17" value="" style="outlineConnect=0;dashed=0;verticalLabelPosition=bottom;verticalAlign=top;align=center;html=1;shape=mxgraph.aws3.application_load_balancer;fillColor=#F58534;gradientColor=none;" vertex="1" parent="1">
          <mxGeometry x="-795" y="-536" width="69" height="72" as="geometry" />
        </mxCell>
        <mxCell id="uI_ZGw8OhmgZRURIhKtp-20" value="KMS Key" style="outlineConnect=0;dashed=0;verticalLabelPosition=bottom;verticalAlign=top;align=center;html=1;shape=mxgraph.aws3.kms;fillColor=#759C3E;gradientColor=none;" vertex="1" parent="1">
          <mxGeometry x="-576" y="-1058" width="46.5" height="56.53" as="geometry" />
        </mxCell>
        <mxCell id="uI_ZGw8OhmgZRURIhKtp-33" style="edgeStyle=orthogonalEdgeStyle;rounded=0;orthogonalLoop=1;jettySize=auto;html=1;entryX=0.997;entryY=0.591;entryDx=0;entryDy=0;entryPerimeter=0;" edge="1" parent="1" source="uI_ZGw8OhmgZRURIhKtp-21" target="uI_ZGw8OhmgZRURIhKtp-31">
          <mxGeometry relative="1" as="geometry">
            <Array as="points">
              <mxPoint x="-435" y="-1080" />
              <mxPoint x="-145" y="-1080" />
              <mxPoint x="-145" y="-906" />
            </Array>
          </mxGeometry>
        </mxCell>
        <mxCell id="uI_ZGw8OhmgZRURIhKtp-21" value="Secret" style="sketch=0;outlineConnect=0;fontColor=#232F3E;gradientColor=none;fillColor=#BF0816;strokeColor=none;dashed=0;verticalLabelPosition=bottom;verticalAlign=top;align=center;html=1;fontSize=12;fontStyle=0;aspect=fixed;pointerEvents=1;shape=mxgraph.aws4.encrypted_data;" vertex="1" parent="1">
          <mxGeometry x="-456" y="-1056.1599999999999" width="42" height="52.84" as="geometry" />
        </mxCell>
        <mxCell id="uI_ZGw8OhmgZRURIhKtp-22" value="Role" style="outlineConnect=0;dashed=0;verticalLabelPosition=bottom;verticalAlign=top;align=center;html=1;shape=mxgraph.aws3.role;fillColor=#759C3E;gradientColor=none;" vertex="1" parent="1">
          <mxGeometry x="-465.25" y="-878.0000000000001" width="60.5" height="50.9" as="geometry" />
        </mxCell>
        <mxCell id="uI_ZGw8OhmgZRURIhKtp-25" style="edgeStyle=orthogonalEdgeStyle;rounded=0;orthogonalLoop=1;jettySize=auto;html=1;entryX=0.5;entryY=1;entryDx=0;entryDy=0;entryPerimeter=0;" edge="1" parent="1" source="uI_ZGw8OhmgZRURIhKtp-23" target="uI_ZGw8OhmgZRURIhKtp-20">
          <mxGeometry relative="1" as="geometry" />
        </mxCell>
        <mxCell id="uI_ZGw8OhmgZRURIhKtp-26" style="edgeStyle=orthogonalEdgeStyle;rounded=0;orthogonalLoop=1;jettySize=auto;html=1;" edge="1" parent="1" source="uI_ZGw8OhmgZRURIhKtp-23" target="uI_ZGw8OhmgZRURIhKtp-21">
          <mxGeometry relative="1" as="geometry" />
        </mxCell>
        <mxCell id="uI_ZGw8OhmgZRURIhKtp-28" style="edgeStyle=orthogonalEdgeStyle;rounded=0;orthogonalLoop=1;jettySize=auto;html=1;" edge="1" parent="1" source="uI_ZGw8OhmgZRURIhKtp-23" target="uI_ZGw8OhmgZRURIhKtp-27">
          <mxGeometry relative="1" as="geometry" />
        </mxCell>
        <mxCell id="uI_ZGw8OhmgZRURIhKtp-23" value="" style="sketch=0;outlineConnect=0;fontColor=#232F3E;gradientColor=none;fillColor=#3F8624;strokeColor=none;dashed=0;verticalLabelPosition=bottom;verticalAlign=top;align=center;html=1;fontSize=12;fontStyle=0;aspect=fixed;pointerEvents=1;shape=mxgraph.aws4.policy;" vertex="1" parent="1">
          <mxGeometry x="-474" y="-979.95" width="78" height="67" as="geometry" />
        </mxCell>
        <mxCell id="uI_ZGw8OhmgZRURIhKtp-32" style="edgeStyle=orthogonalEdgeStyle;rounded=0;orthogonalLoop=1;jettySize=auto;html=1;" edge="1" parent="1" source="uI_ZGw8OhmgZRURIhKtp-27" target="uI_ZGw8OhmgZRURIhKtp-31">
          <mxGeometry relative="1" as="geometry">
            <Array as="points">
              <mxPoint x="-251" y="-1020" />
            </Array>
          </mxGeometry>
        </mxCell>
        <mxCell id="uI_ZGw8OhmgZRURIhKtp-27" value="Amazon ECR" style="sketch=0;outlineConnect=0;fontColor=#232F3E;gradientColor=none;strokeColor=#ffffff;fillColor=#232F3E;dashed=0;verticalLabelPosition=middle;verticalAlign=bottom;align=center;html=1;whiteSpace=wrap;fontSize=10;fontStyle=1;spacing=3;shape=mxgraph.aws4.productIcon;prIcon=mxgraph.aws4.ecr;" vertex="1" parent="1">
          <mxGeometry x="-336" y="-1058" width="60" height="75" as="geometry" />
        </mxCell>
        <mxCell id="uI_ZGw8OhmgZRURIhKtp-29" style="edgeStyle=orthogonalEdgeStyle;rounded=0;orthogonalLoop=1;jettySize=auto;html=1;" edge="1" parent="1" source="uI_ZGw8OhmgZRURIhKtp-22" target="uI_ZGw8OhmgZRURIhKtp-23">
          <mxGeometry relative="1" as="geometry" />
        </mxCell>
        <mxCell id="uI_ZGw8OhmgZRURIhKtp-34" style="edgeStyle=orthogonalEdgeStyle;rounded=0;orthogonalLoop=1;jettySize=auto;html=1;" edge="1" parent="1" source="uI_ZGw8OhmgZRURIhKtp-31" target="uI_ZGw8OhmgZRURIhKtp-13">
          <mxGeometry relative="1" as="geometry">
            <Array as="points">
              <mxPoint x="-251" y="-640" />
            </Array>
          </mxGeometry>
        </mxCell>
        <mxCell id="uI_ZGw8OhmgZRURIhKtp-36" style="edgeStyle=orthogonalEdgeStyle;rounded=0;orthogonalLoop=1;jettySize=auto;html=1;entryX=1;entryY=0.5;entryDx=0;entryDy=0;entryPerimeter=0;" edge="1" parent="1" source="uI_ZGw8OhmgZRURIhKtp-31" target="uI_ZGw8OhmgZRURIhKtp-15">
          <mxGeometry relative="1" as="geometry">
            <Array as="points">
              <mxPoint x="-251" y="-360" />
            </Array>
          </mxGeometry>
        </mxCell>
        <mxCell id="uI_ZGw8OhmgZRURIhKtp-31" value="" style="sketch=0;aspect=fixed;html=1;points=[];align=center;image;fontSize=12;image=img/lib/mscae/Docker.svg;" vertex="1" parent="1">
          <mxGeometry x="-276" y="-930" width="50" height="41" as="geometry" />
        </mxCell>
        <mxCell id="uI_ZGw8OhmgZRURIhKtp-37" value="Cloudwatch" style="outlineConnect=0;dashed=0;verticalLabelPosition=bottom;verticalAlign=top;align=center;html=1;shape=mxgraph.aws3.cloudwatch;fillColor=#759C3E;gradientColor=none;" vertex="1" parent="1">
          <mxGeometry x="-720" y="-1050.09" width="52.5" height="59.18" as="geometry" />
        </mxCell>
        <mxCell id="uI_ZGw8OhmgZRURIhKtp-44" style="edgeStyle=orthogonalEdgeStyle;rounded=0;orthogonalLoop=1;jettySize=auto;html=1;" edge="1" parent="1" source="uI_ZGw8OhmgZRURIhKtp-43" target="uI_ZGw8OhmgZRURIhKtp-17">
          <mxGeometry relative="1" as="geometry" />
        </mxCell>
        <mxCell id="uI_ZGw8OhmgZRURIhKtp-43" value="" style="outlineConnect=0;dashed=0;verticalLabelPosition=bottom;verticalAlign=top;align=center;html=1;shape=mxgraph.aws3.internet;fillColor=#D2D3D3;gradientColor=none;" vertex="1" parent="1">
          <mxGeometry x="-1000" y="-539.75" width="79.5" height="79.5" as="geometry" />
        </mxCell>
      </root>
    </mxGraphModel>
  </diagram>
</mxfile>
